<mxfile host="Electron" modified="2024-05-14T19:50:59.545Z" agent="Mozilla/5.0 (Macintosh; Intel Mac OS X 10_15_7) AppleWebKit/537.36 (KHTML, like Gecko) draw.io/24.2.5 Chrome/120.0.6099.109 Electron/28.1.0 Safari/537.36" etag="UF2s8G7of6M-OQhLyVy4" version="24.2.5" type="device">
  <diagram name="main" id="qus0AvffEHUse5br1jwa">
    <mxGraphModel dx="1100" dy="380" grid="1" gridSize="10" guides="1" tooltips="1" connect="1" arrows="1" fold="1" page="1" pageScale="1" pageWidth="850" pageHeight="1100" math="0" shadow="0">
      <root>
        <mxCell id="0" />
        <mxCell id="1" parent="0" />
        <mxCell id="P0kUxeBd4g9Ik7_Fn5cs-1" style="edgeStyle=orthogonalEdgeStyle;rounded=1;orthogonalLoop=1;jettySize=auto;html=1;exitX=1;exitY=0.5;exitDx=0;exitDy=0;exitPerimeter=0;entryX=0;entryY=0.5;entryDx=0;entryDy=0;entryPerimeter=0;strokeWidth=2;curved=0;" edge="1" parent="1" source="P0kUxeBd4g9Ik7_Fn5cs-6" target="P0kUxeBd4g9Ik7_Fn5cs-11">
          <mxGeometry relative="1" as="geometry">
            <mxPoint x="662.25" y="228.5" as="targetPoint" />
          </mxGeometry>
        </mxCell>
        <mxCell id="P0kUxeBd4g9Ik7_Fn5cs-2" style="edgeStyle=orthogonalEdgeStyle;rounded=1;orthogonalLoop=1;jettySize=auto;html=1;exitX=1;exitY=0.5;exitDx=0;exitDy=0;exitPerimeter=0;entryX=0;entryY=0.5;entryDx=0;entryDy=0;entryPerimeter=0;strokeWidth=2;curved=0;" edge="1" parent="1" source="P0kUxeBd4g9Ik7_Fn5cs-9" target="P0kUxeBd4g9Ik7_Fn5cs-11">
          <mxGeometry relative="1" as="geometry">
            <mxPoint x="662.25" y="228.5" as="targetPoint" />
          </mxGeometry>
        </mxCell>
        <mxCell id="P0kUxeBd4g9Ik7_Fn5cs-3" value="&lt;b&gt;&lt;font style=&quot;font-size: 24px;&quot;&gt;Parallel Routing&lt;/font&gt;&lt;/b&gt;" style="text;html=1;align=center;verticalAlign=middle;resizable=0;points=[];autosize=1;strokeColor=none;fillColor=none;" vertex="1" parent="1">
          <mxGeometry x="50" y="30" width="201" height="41" as="geometry" />
        </mxCell>
        <mxCell id="P0kUxeBd4g9Ik7_Fn5cs-4" value="Echo" style="rounded=1;whiteSpace=wrap;html=1;sketch=0;container=1;recursiveResize=0;verticalAlign=top;arcSize=6;fontStyle=1;autosize=0;points=[];absoluteArcSize=1;shadow=1;strokeColor=#6c8ebf;fillColor=#dae8fc;fontFamily=Helvetica;fontSize=11;gradientColor=#0050EF;fontColor=default;" vertex="1" parent="1">
          <mxGeometry x="299" y="96" width="140" height="100" as="geometry">
            <mxRectangle x="-98" y="-1230" width="99" height="26" as="alternateBounds" />
          </mxGeometry>
        </mxCell>
        <mxCell id="P0kUxeBd4g9Ik7_Fn5cs-5" value="" style="rounded=1;whiteSpace=wrap;html=1;sketch=0;points=[[0,0.5,0,0,0],[1,0.5,0,0,0]];arcSize=50;fontFamily=Helvetica;fontSize=11;fontColor=default;" vertex="1" parent="P0kUxeBd4g9Ik7_Fn5cs-4">
          <mxGeometry x="-16.75" y="27.5" width="36.75" height="25" as="geometry" />
        </mxCell>
        <mxCell id="P0kUxeBd4g9Ik7_Fn5cs-6" value="" style="rounded=1;whiteSpace=wrap;html=1;sketch=0;points=[[0,0.5,0,0,0],[1,0.5,0,0,0]];fillColor=#1ba1e2;fontColor=#ffffff;strokeColor=#006EAF;arcSize=50;fontFamily=Helvetica;fontSize=11;" vertex="1" parent="P0kUxeBd4g9Ik7_Fn5cs-4">
          <mxGeometry x="120" y="27.5" width="36" height="25" as="geometry" />
        </mxCell>
        <mxCell id="P0kUxeBd4g9Ik7_Fn5cs-7" value="Echo" style="rounded=1;whiteSpace=wrap;html=1;sketch=0;container=1;recursiveResize=0;verticalAlign=top;arcSize=6;fontStyle=1;autosize=0;points=[];absoluteArcSize=1;shadow=1;strokeColor=#6c8ebf;fillColor=#dae8fc;fontFamily=Helvetica;fontSize=11;gradientColor=#0050EF;fontColor=default;" vertex="1" parent="1">
          <mxGeometry x="299" y="257" width="140" height="100" as="geometry">
            <mxRectangle x="-98" y="-1230" width="99" height="26" as="alternateBounds" />
          </mxGeometry>
        </mxCell>
        <mxCell id="P0kUxeBd4g9Ik7_Fn5cs-8" value="" style="rounded=1;whiteSpace=wrap;html=1;sketch=0;points=[[0,0.5,0,0,0],[1,0.5,0,0,0]];arcSize=50;fontFamily=Helvetica;fontSize=11;fontColor=default;" vertex="1" parent="P0kUxeBd4g9Ik7_Fn5cs-7">
          <mxGeometry x="-16.75" y="27.5" width="36.75" height="25" as="geometry" />
        </mxCell>
        <mxCell id="P0kUxeBd4g9Ik7_Fn5cs-9" value="" style="rounded=1;whiteSpace=wrap;html=1;sketch=0;points=[[0,0.5,0,0,0],[1,0.5,0,0,0]];fillColor=#1ba1e2;fontColor=#ffffff;strokeColor=#006EAF;arcSize=50;fontFamily=Helvetica;fontSize=11;" vertex="1" parent="P0kUxeBd4g9Ik7_Fn5cs-7">
          <mxGeometry x="120" y="27.5" width="36" height="25" as="geometry" />
        </mxCell>
        <mxCell id="P0kUxeBd4g9Ik7_Fn5cs-10" value="" style="rhombus;whiteSpace=wrap;html=1;rounded=1;fontStyle=1;glass=0;sketch=0;fontSize=12;points=[[0,0.5,0,0,0],[0.5,0,0,0,0],[0.5,1,0,0,0],[1,0.5,0,0,0]];shadow=1;" vertex="1" parent="1">
          <mxGeometry x="99" y="197" width="40" height="40" as="geometry" />
        </mxCell>
        <mxCell id="P0kUxeBd4g9Ik7_Fn5cs-11" value="par" style="rhombus;whiteSpace=wrap;html=1;rounded=1;fontStyle=1;glass=0;sketch=0;fontSize=12;points=[[0,0.5,0,0,0],[0.5,0,0,0,0],[0.5,1,0,0,0],[1,0.5,0,0,0]];shadow=1;fillColor=#0050ef;fontColor=#ffffff;strokeColor=#001DBC;" vertex="1" parent="1">
          <mxGeometry x="600" y="197" width="40" height="40" as="geometry" />
        </mxCell>
        <mxCell id="P0kUxeBd4g9Ik7_Fn5cs-12" style="edgeStyle=orthogonalEdgeStyle;rounded=1;orthogonalLoop=1;jettySize=auto;html=1;exitX=1;exitY=0.5;exitDx=0;exitDy=0;exitPerimeter=0;entryX=0;entryY=0.5;entryDx=0;entryDy=0;entryPerimeter=0;curved=0;strokeWidth=2;" edge="1" parent="1" source="P0kUxeBd4g9Ik7_Fn5cs-10" target="P0kUxeBd4g9Ik7_Fn5cs-5">
          <mxGeometry relative="1" as="geometry" />
        </mxCell>
        <mxCell id="P0kUxeBd4g9Ik7_Fn5cs-13" style="edgeStyle=orthogonalEdgeStyle;curved=0;rounded=1;orthogonalLoop=1;jettySize=auto;html=1;exitX=1;exitY=0.5;exitDx=0;exitDy=0;exitPerimeter=0;entryX=0;entryY=0.5;entryDx=0;entryDy=0;entryPerimeter=0;strokeColor=default;strokeWidth=2;align=center;verticalAlign=middle;fontFamily=Helvetica;fontSize=11;fontColor=default;labelBackgroundColor=default;endArrow=classic;" edge="1" parent="1" source="P0kUxeBd4g9Ik7_Fn5cs-10" target="P0kUxeBd4g9Ik7_Fn5cs-8">
          <mxGeometry relative="1" as="geometry" />
        </mxCell>
      </root>
    </mxGraphModel>
  </diagram>
</mxfile>
